<mxfile host="app.diagrams.net" modified="2024-05-16T17:30:26.988Z" agent="Mozilla/5.0 (Windows NT 10.0; Win64; x64) AppleWebKit/537.36 (KHTML, like Gecko) Chrome/124.0.0.0 Safari/537.36" etag="DmzC8tcAVLXsFN6UQ5Zs" version="24.4.3" type="device">
  <diagram name="Page-1" id="2YBvvXClWsGukQMizWep">
    <mxGraphModel dx="1393" dy="771" grid="1" gridSize="10" guides="1" tooltips="1" connect="1" arrows="1" fold="1" page="1" pageScale="1" pageWidth="850" pageHeight="1100" math="0" shadow="0">
      <root>
        <mxCell id="0" />
        <mxCell id="1" parent="0" />
        <mxCell id="aM9ryv3xv72pqoxQDRHE-1" value=":Controller" style="shape=umlLifeline;perimeter=lifelinePerimeter;whiteSpace=wrap;html=1;container=0;dropTarget=0;collapsible=0;recursiveResize=0;outlineConnect=0;portConstraint=eastwest;newEdgeStyle={&quot;edgeStyle&quot;:&quot;elbowEdgeStyle&quot;,&quot;elbow&quot;:&quot;vertical&quot;,&quot;curved&quot;:0,&quot;rounded&quot;:0};" parent="1" vertex="1">
          <mxGeometry x="310" y="80" width="100" height="360" as="geometry" />
        </mxCell>
        <mxCell id="aM9ryv3xv72pqoxQDRHE-2" value="" style="html=1;points=[];perimeter=orthogonalPerimeter;outlineConnect=0;targetShapes=umlLifeline;portConstraint=eastwest;newEdgeStyle={&quot;edgeStyle&quot;:&quot;elbowEdgeStyle&quot;,&quot;elbow&quot;:&quot;vertical&quot;,&quot;curved&quot;:0,&quot;rounded&quot;:0};" parent="aM9ryv3xv72pqoxQDRHE-1" vertex="1">
          <mxGeometry x="45" y="70" width="10" height="260" as="geometry" />
        </mxCell>
        <mxCell id="aM9ryv3xv72pqoxQDRHE-5" value=":ReportGenerator" style="shape=umlLifeline;perimeter=lifelinePerimeter;whiteSpace=wrap;html=1;container=0;dropTarget=0;collapsible=0;recursiveResize=0;outlineConnect=0;portConstraint=eastwest;newEdgeStyle={&quot;edgeStyle&quot;:&quot;elbowEdgeStyle&quot;,&quot;elbow&quot;:&quot;vertical&quot;,&quot;curved&quot;:0,&quot;rounded&quot;:0};" parent="1" vertex="1">
          <mxGeometry x="560" y="80" width="100" height="360" as="geometry" />
        </mxCell>
        <mxCell id="aM9ryv3xv72pqoxQDRHE-6" value="" style="html=1;points=[];perimeter=orthogonalPerimeter;outlineConnect=0;targetShapes=umlLifeline;portConstraint=eastwest;newEdgeStyle={&quot;edgeStyle&quot;:&quot;elbowEdgeStyle&quot;,&quot;elbow&quot;:&quot;vertical&quot;,&quot;curved&quot;:0,&quot;rounded&quot;:0};" parent="aM9ryv3xv72pqoxQDRHE-5" vertex="1">
          <mxGeometry x="45" y="80" width="10" height="190" as="geometry" />
        </mxCell>
        <mxCell id="o1wPfOxa28r5ofFfSfBA-27" style="edgeStyle=elbowEdgeStyle;rounded=0;orthogonalLoop=1;jettySize=auto;html=1;jumpSize=6;" parent="aM9ryv3xv72pqoxQDRHE-5" edge="1">
          <mxGeometry relative="1" as="geometry">
            <mxPoint x="55" y="249.9999999999999" as="targetPoint" />
            <mxPoint x="55" y="220.00000000000023" as="sourcePoint" />
            <Array as="points">
              <mxPoint x="70" y="235" />
            </Array>
          </mxGeometry>
        </mxCell>
        <mxCell id="o1wPfOxa28r5ofFfSfBA-28" value="analyze()" style="edgeLabel;html=1;align=center;verticalAlign=middle;resizable=0;points=[];" parent="o1wPfOxa28r5ofFfSfBA-27" vertex="1" connectable="0">
          <mxGeometry x="-0.1353" y="-1" relative="1" as="geometry">
            <mxPoint x="31" y="-1" as="offset" />
          </mxGeometry>
        </mxCell>
        <mxCell id="aM9ryv3xv72pqoxQDRHE-7" value="generateReport(duration)" style="html=1;verticalAlign=bottom;endArrow=block;edgeStyle=elbowEdgeStyle;elbow=vertical;curved=0;rounded=0;" parent="1" source="aM9ryv3xv72pqoxQDRHE-2" target="aM9ryv3xv72pqoxQDRHE-6" edge="1">
          <mxGeometry relative="1" as="geometry">
            <mxPoint x="465" y="170" as="sourcePoint" />
            <Array as="points">
              <mxPoint x="450" y="160" />
            </Array>
          </mxGeometry>
        </mxCell>
        <mxCell id="aM9ryv3xv72pqoxQDRHE-8" value="return Report" style="html=1;verticalAlign=bottom;endArrow=open;dashed=1;endSize=8;edgeStyle=elbowEdgeStyle;elbow=vertical;curved=0;rounded=0;" parent="1" source="aM9ryv3xv72pqoxQDRHE-6" target="aM9ryv3xv72pqoxQDRHE-2" edge="1">
          <mxGeometry relative="1" as="geometry">
            <mxPoint x="465" y="245" as="targetPoint" />
            <Array as="points">
              <mxPoint x="460" y="350" />
            </Array>
          </mxGeometry>
        </mxCell>
        <mxCell id="o1wPfOxa28r5ofFfSfBA-1" value="User" style="shape=umlActor;verticalLabelPosition=bottom;verticalAlign=top;html=1;outlineConnect=0;" parent="1" vertex="1">
          <mxGeometry x="90" y="120" width="30" height="60" as="geometry" />
        </mxCell>
        <mxCell id="aM9ryv3xv72pqoxQDRHE-3" value="" style="html=1;verticalAlign=bottom;startArrow=oval;endArrow=block;startSize=8;edgeStyle=elbowEdgeStyle;elbow=vertical;curved=0;rounded=0;fontSize=10;" parent="1" source="o1wPfOxa28r5ofFfSfBA-1" target="aM9ryv3xv72pqoxQDRHE-2" edge="1">
          <mxGeometry relative="1" as="geometry">
            <mxPoint x="295" y="150" as="sourcePoint" />
            <Array as="points">
              <mxPoint x="260" y="150" />
            </Array>
          </mxGeometry>
        </mxCell>
        <mxCell id="o1wPfOxa28r5ofFfSfBA-18" value="getReport(duration)" style="edgeLabel;html=1;align=center;verticalAlign=middle;resizable=0;points=[];" parent="aM9ryv3xv72pqoxQDRHE-3" vertex="1" connectable="0">
          <mxGeometry x="0.1302" y="-1" relative="1" as="geometry">
            <mxPoint x="17" y="-11" as="offset" />
          </mxGeometry>
        </mxCell>
        <mxCell id="o1wPfOxa28r5ofFfSfBA-4" value="&lt;span style=&quot;font-size: 17px;&quot;&gt;generateReport()&lt;/span&gt;" style="text;html=1;align=center;verticalAlign=middle;resizable=0;points=[];autosize=1;strokeColor=none;fillColor=none;fontFamily=Georgia;labelBackgroundColor=#3DB8FF;labelBorderColor=none;spacingLeft=4;fontSize=17;" parent="1" vertex="1">
          <mxGeometry x="80" y="30" width="150" height="30" as="geometry" />
        </mxCell>
        <mxCell id="o1wPfOxa28r5ofFfSfBA-12" value=":ViewComponent" style="shape=umlLifeline;perimeter=lifelinePerimeter;whiteSpace=wrap;html=1;container=0;dropTarget=0;collapsible=0;recursiveResize=0;outlineConnect=0;portConstraint=eastwest;newEdgeStyle={&quot;edgeStyle&quot;:&quot;elbowEdgeStyle&quot;,&quot;elbow&quot;:&quot;vertical&quot;,&quot;curved&quot;:0,&quot;rounded&quot;:0};" parent="1" vertex="1">
          <mxGeometry x="140" y="80" width="100" height="360" as="geometry" />
        </mxCell>
        <mxCell id="o1wPfOxa28r5ofFfSfBA-13" value="" style="html=1;points=[];perimeter=orthogonalPerimeter;outlineConnect=0;targetShapes=umlLifeline;portConstraint=eastwest;newEdgeStyle={&quot;edgeStyle&quot;:&quot;elbowEdgeStyle&quot;,&quot;elbow&quot;:&quot;vertical&quot;,&quot;curved&quot;:0,&quot;rounded&quot;:0};" parent="o1wPfOxa28r5ofFfSfBA-12" vertex="1">
          <mxGeometry x="45" y="60" width="10" height="290" as="geometry" />
        </mxCell>
        <mxCell id="o1wPfOxa28r5ofFfSfBA-14" value="display()" style="html=1;verticalAlign=bottom;endArrow=open;dashed=1;endSize=8;edgeStyle=elbowEdgeStyle;elbow=vertical;curved=0;rounded=0;" parent="1" source="aM9ryv3xv72pqoxQDRHE-2" target="o1wPfOxa28r5ofFfSfBA-13" edge="1">
          <mxGeometry relative="1" as="geometry">
            <mxPoint x="170" y="460" as="targetPoint" />
            <Array as="points">
              <mxPoint x="270" y="380" />
            </Array>
            <mxPoint x="410" y="460" as="sourcePoint" />
          </mxGeometry>
        </mxCell>
        <mxCell id="o1wPfOxa28r5ofFfSfBA-7" value="retrieveExpenseList()" style="html=1;verticalAlign=bottom;endArrow=block;edgeStyle=elbowEdgeStyle;elbow=vertical;curved=0;rounded=0;" parent="1" source="aM9ryv3xv72pqoxQDRHE-6" target="aM9ryv3xv72pqoxQDRHE-2" edge="1">
          <mxGeometry relative="1" as="geometry">
            <mxPoint x="605" y="180" as="sourcePoint" />
            <Array as="points">
              <mxPoint x="460" y="200" />
            </Array>
            <mxPoint x="365" y="180" as="targetPoint" />
          </mxGeometry>
        </mxCell>
        <mxCell id="o1wPfOxa28r5ofFfSfBA-20" value="retrieveBudgetList()" style="html=1;verticalAlign=bottom;endArrow=block;edgeStyle=elbowEdgeStyle;elbow=vertical;curved=0;rounded=0;" parent="1" edge="1">
          <mxGeometry relative="1" as="geometry">
            <mxPoint x="605" y="229.65999999999997" as="sourcePoint" />
            <Array as="points">
              <mxPoint x="455" y="229.66" />
            </Array>
            <mxPoint x="365" y="229.65999999999997" as="targetPoint" />
          </mxGeometry>
        </mxCell>
        <mxCell id="o1wPfOxa28r5ofFfSfBA-21" style="edgeStyle=elbowEdgeStyle;rounded=0;orthogonalLoop=1;jettySize=auto;html=1;elbow=horizontal;curved=0;dashed=1;" parent="1" source="aM9ryv3xv72pqoxQDRHE-2" target="aM9ryv3xv72pqoxQDRHE-6" edge="1">
          <mxGeometry relative="1" as="geometry">
            <Array as="points">
              <mxPoint x="490" y="260" />
            </Array>
          </mxGeometry>
        </mxCell>
        <mxCell id="o1wPfOxa28r5ofFfSfBA-22" value="send ExpenseList" style="edgeLabel;html=1;align=center;verticalAlign=middle;resizable=0;points=[];" parent="o1wPfOxa28r5ofFfSfBA-21" vertex="1" connectable="0">
          <mxGeometry x="0.1856" relative="1" as="geometry">
            <mxPoint x="-17" y="-10" as="offset" />
          </mxGeometry>
        </mxCell>
        <mxCell id="o1wPfOxa28r5ofFfSfBA-23" style="edgeStyle=elbowEdgeStyle;rounded=0;orthogonalLoop=1;jettySize=auto;html=1;elbow=horizontal;curved=0;dashed=1;" parent="1" source="aM9ryv3xv72pqoxQDRHE-2" target="aM9ryv3xv72pqoxQDRHE-6" edge="1">
          <mxGeometry relative="1" as="geometry">
            <mxPoint x="370" y="280" as="sourcePoint" />
            <mxPoint x="610" y="280" as="targetPoint" />
            <Array as="points">
              <mxPoint x="495" y="290" />
            </Array>
          </mxGeometry>
        </mxCell>
        <mxCell id="o1wPfOxa28r5ofFfSfBA-24" value="send BudgetList" style="edgeLabel;html=1;align=center;verticalAlign=middle;resizable=0;points=[];" parent="o1wPfOxa28r5ofFfSfBA-23" vertex="1" connectable="0">
          <mxGeometry x="0.1856" relative="1" as="geometry">
            <mxPoint x="-17" y="-10" as="offset" />
          </mxGeometry>
        </mxCell>
      </root>
    </mxGraphModel>
  </diagram>
</mxfile>
